<svg xmlns="http://www.w3.org/2000/svg" viewBox="0 0 512 512" fill="none" role="img" aria-label="CartFlow">
  <defs>
    <linearGradient id="bg" x1="96" y1="64" x2="416" y2="448" gradientUnits="userSpaceOnUse">
      <stop stop-color="#1F8F66"/>
      <stop offset="1" stop-color="#1A7F5A"/>
    </linearGradient>
  </defs>
  <rect width="512" height="512" rx="112" fill="url(#bg)"/>
  <path
    d="M168 196h176c8 0 14 6 15 14l-22 196c-1 7-7 12-14 12H189c-7 0-13-5-14-12l-22-196c1-8 7-14 15-14z"
    fill="#FFFFFF"
  />
  <path
    d="M204 196c0-36 24-60 52-60s52 24 52 60"
    stroke="#FFFFFF"
    stroke-width="26"
    stroke-linecap="round"
    fill="none"
  />
  <path
    d="M196 268h120"
    stroke="#B8956A"
    stroke-width="10"
    stroke-linecap="round"
  />
  <circle cx="220" cy="372" r="18" fill="#1A7F5A"/>
  <circle cx="292" cy="372" r="18" fill="#1A7F5A"/>
</svg>